<svg xmlns="http://www.w3.org/2000/svg" width="16" height="18" fill="none"><path fill="#15559F" fill-rule="evenodd" d="M9.547 11.813H6.453v5.062a.282.282 0 0 1-.281.281H2.38a1.36 1.36 0 0 1-.997-.41 1.355 1.355 0 0 1-.415-.997v-7.55a.82.82 0 0 1 .235-.571l6.249-6.55a.769.769 0 0 1 .551-.234c.207 0 .404.084.55.235l6.25 6.549a.83.83 0 0 1 .227.572v7.549c0 .39-.139.724-.415.997a1.36 1.36 0 0 1-.997.41H9.83a.282.282 0 0 1-.282-.281v-5.063Zm4.078-3.384-5.62-5.89-5.63 5.897v7.314h2.672v-3.938c0-.771.634-1.406 1.406-1.406h3.094a1.41 1.41 0 0 1 1.406 1.406v3.938h2.666l.006-7.32Z" clip-rule="evenodd"/></svg>