<svg xmlns="http://www.w3.org/2000/svg" width="16" height="14" fill="none"><path fill="#969699" fill-rule="evenodd" d="M.969.813H15.03c.155 0 .281.126.281.28V2.5a.282.282 0 0 1-.28.281H.968A.282.282 0 0 1 .688 2.5V1.094c0-.155.126-.282.28-.282Zm0 5.203H15.03c.155 0 .281.126.281.28v1.407a.282.282 0 0 1-.28.281H.968a.282.282 0 0 1-.281-.28V6.296c0-.155.126-.281.28-.281Zm0 5.203H15.03c.155 0 .281.126.281.281v1.406a.282.282 0 0 1-.28.281H.968a.282.282 0 0 1-.281-.28V11.5c0-.155.126-.281.28-.281Z" clip-rule="evenodd"/></svg>