<svg xmlns="http://www.w3.org/2000/svg" width="28" height="28" fill="none"><path fill="#15559F" fill-rule="evenodd" d="M14 8.339a3.066 3.066 0 1 1 0 6.133 3.066 3.066 0 0 1 0-6.133Zm0-2.36a5.426 5.426 0 1 1-.002 10.853A5.426 5.426 0 0 1 14 5.98ZM6.364 22.36c.6-2.618 2.954-4.585 5.749-4.585h3.774c2.795 0 5.15 1.967 5.749 4.586A11.292 11.292 0 0 0 25.323 14c0-6.253-5.07-11.323-11.323-11.323S2.677 7.747 2.677 14c0 3.312 1.423 6.291 3.687 8.36Zm13.061 1.581v-.269a3.552 3.552 0 0 0-3.538-3.538h-3.774a3.552 3.552 0 0 0-3.538 3.538v.27c1.663.908 3.53 1.384 5.425 1.382 1.965 0 3.814-.503 5.425-1.383ZM14 .32C21.555.319 27.681 6.445 27.681 14c0 7.555-6.126 13.681-13.681 13.681-7.555 0-13.681-6.126-13.681-13.68C.319 6.444 6.445.318 14 .318Z" clip-rule="evenodd"/></svg>