<svg width="18" height="18" viewBox="0 0 18 18" fill="none" xmlns="http://www.w3.org/2000/svg">
<path d="M13.4492 9.51891C13.4647 8.24766 14.1312 7.07484 15.2126 6.40969C14.8746 5.9263 14.4285 5.52842 13.9097 5.24768C13.391 4.96695 12.8139 4.81109 12.2243 4.7925C10.9658 4.66031 9.74654 5.54484 9.10529 5.54484C8.45279 5.54484 7.4656 4.80516 6.40247 4.82766C5.00466 4.87266 3.732 5.64891 3.05279 6.87094C1.60294 9.37828 2.68435 13.0655 4.07232 15.0919C4.7656 16.0847 5.577 17.1942 6.63872 17.1548C7.67794 17.1112 8.06607 16.4925 9.32044 16.4925C10.5636 16.4925 10.9264 17.1548 12.0106 17.1295C13.1258 17.1112 13.8275 16.1325 14.4968 15.1298C14.9961 14.4239 15.3814 13.6392 15.6359 12.8138C14.3112 12.2541 13.4492 10.9561 13.4492 9.51891ZM11.4017 3.45797C11.9487 2.80253 12.2483 1.97589 12.2483 1.12219C12.2483 1.02938 12.244 0.936563 12.237 0.84375C11.3089 0.942187 10.4497 1.38656 9.83372 2.08828C9.53268 2.43078 9.30209 2.82926 9.15514 3.26094C9.00819 3.69261 8.94777 4.14902 8.97732 4.60406H9.00966C9.93919 4.60406 10.8195 4.18359 11.4017 3.45797Z" fill="#212122"/>
</svg>
