<svg width="80" height="80" viewBox="0 0 80 80" fill="none" xmlns="http://www.w3.org/2000/svg">
<rect x="1" y="1" width="78" height="78" rx="39" stroke="#15559F" stroke-width="2"/>
<path fill-rule="evenodd" clip-rule="evenodd" d="M40.0002 40.6618C42.1939 40.6618 43.9708 42.4386 43.9708 44.6324C43.9708 46.1015 43.1733 47.3853 41.9855 48.0702V51.9118C41.9855 52.2757 41.6877 52.5735 41.3237 52.5735H38.6766C38.3127 52.5735 38.0149 52.2757 38.0149 51.9118V48.0702C36.827 47.3853 36.0296 46.1015 36.0296 44.6324C36.0296 42.4386 37.8064 40.6618 40.0002 40.6618ZM53.2355 55.8824V37.353H26.7649V55.8824H53.2355ZM45.9561 34.0441V30.7353C45.9561 27.4629 43.2726 24.7794 40.0002 24.7794C36.7277 24.7794 34.0443 27.4629 34.0443 30.7353V34.0441H45.9561ZM30.0737 34.0441V30.7353C30.0737 25.2724 34.5373 20.8088 40.0002 20.8088C45.463 20.8088 49.9266 25.2724 49.9266 30.7353V34.0441H53.2355C55.0553 34.0441 56.5443 35.5331 56.5443 37.353V55.8824C56.5443 57.7022 55.0553 59.1912 53.2355 59.1912H26.7649C24.945 59.1912 23.4561 57.7022 23.4561 55.8824V37.353C23.4561 35.5331 24.945 34.0441 26.7649 34.0441H30.0737Z" fill="#15559F"/>
</svg>
