<svg width="80" height="80" viewBox="0 0 80 80" fill="none" xmlns="http://www.w3.org/2000/svg">
<rect x="1" y="1" width="78" height="78" rx="39" stroke="#15559F" stroke-width="2"/>
<path fill-rule="evenodd" clip-rule="evenodd" d="M44.3414 54.2643L56.1903 42.4154C56.4484 42.1574 56.8686 42.1574 57.1267 42.4154L58.9995 44.2849C59.2576 44.543 59.251 44.9665 58.9995 45.2213L45.5094 58.7081C44.8708 59.35 43.812 59.35 43.1701 58.7081L37.062 52.6C36.8072 52.3452 36.8039 51.9217 37.062 51.6636L38.9315 49.7941C39.1896 49.536 39.6131 49.5393 39.8679 49.7941L44.3414 54.2643V54.2643ZM28.2208 44.6324C29.3194 44.6324 30.2061 45.5191 30.2061 46.6176C30.2061 47.7129 29.3194 48.6029 28.2208 48.6029C27.1256 48.6029 26.2356 47.7129 26.2356 46.6176C26.2356 45.5191 27.1256 44.6324 28.2208 44.6324ZM34.3091 44.6324C35.4043 44.6324 36.2944 45.5191 36.2944 46.6176C36.2944 47.7129 35.4043 48.6029 34.3091 48.6029C33.2139 48.6029 32.3238 47.7129 32.3238 46.6176C32.3238 45.5191 33.2139 44.6324 34.3091 44.6324ZM40.3973 44.6324C41.4925 44.6324 42.3826 45.5191 42.3826 46.6176C42.3826 47.7129 41.4925 48.6029 40.3973 48.6029C39.2988 48.6029 38.412 47.7129 38.412 46.6176C38.412 45.5191 39.2988 44.6324 40.3973 44.6324ZM46.4856 44.6324C47.5808 44.6324 48.4708 45.5191 48.4708 46.6176C48.4708 47.7129 47.5808 48.6029 46.4856 48.6029C45.387 48.6029 44.5003 47.7129 44.5003 46.6176C44.5003 45.5191 45.387 44.6324 46.4856 44.6324ZM50.6282 43.5768L50.5885 37.3529H24.1179V55.8824H37.2606C37.4425 55.8824 37.5981 55.9452 37.7271 56.0743L39.7157 58.0596C39.9076 58.2548 39.9639 58.5294 39.858 58.7809C39.7521 59.0324 39.5205 59.1912 39.2458 59.1912H24.1179C22.2981 59.1912 20.8091 57.7022 20.8091 55.8824V37.3529C20.8091 35.5331 22.2981 34.0441 24.1179 34.0441H27.4267V30.7353C27.4267 25.2724 31.8903 20.8088 37.3532 20.8088C42.8161 20.8088 47.2797 25.2724 47.2797 30.7353V34.0441H50.5885C52.4083 34.0441 53.8973 35.5331 53.8973 37.3529L53.9304 41.5882C53.9337 41.7702 53.8675 41.929 53.7385 42.0614L51.7565 44.0401C51.5646 44.2353 51.29 44.2882 51.0385 44.1857C50.9165 44.1377 50.8119 44.0538 50.7386 43.9451C50.6653 43.8364 50.6268 43.7079 50.6282 43.5768V43.5768ZM43.3091 34.0441V30.7353C43.3091 27.4629 40.6256 24.7794 37.3532 24.7794C34.0808 24.7794 31.3973 27.4629 31.3973 30.7353V34.0441H43.3091Z" fill="#15559F"/>
</svg>
