<svg width="15" height="17" viewBox="0 0 15 17" fill="none" xmlns="http://www.w3.org/2000/svg">
<path fill-rule="evenodd" clip-rule="evenodd" d="M7.03125 8.4375C7.96359 8.4375 8.71875 9.19266 8.71875 10.125C8.71875 10.7494 8.37984 11.295 7.875 11.5861V13.2188C7.875 13.3734 7.74844 13.5 7.59375 13.5H6.46875C6.31406 13.5 6.1875 13.3734 6.1875 13.2188V11.5861C5.68266 11.295 5.34375 10.7494 5.34375 10.125C5.34375 9.19266 6.09891 8.4375 7.03125 8.4375ZM12.6562 14.9062V7.03125H1.40625V14.9062H12.6562ZM9.5625 5.625V4.21875C9.5625 2.82797 8.42203 1.6875 7.03125 1.6875C5.64047 1.6875 4.5 2.82797 4.5 4.21875V5.625H9.5625ZM2.8125 5.625V4.21875C2.8125 1.89703 4.70953 0 7.03125 0C9.35297 0 11.25 1.89703 11.25 4.21875V5.625H12.6562C13.4297 5.625 14.0625 6.25781 14.0625 7.03125V14.9062C14.0625 15.6797 13.4297 16.3125 12.6562 16.3125H1.40625C0.632812 16.3125 0 15.6797 0 14.9062V7.03125C0 6.25781 0.632812 5.625 1.40625 5.625H2.8125Z" fill="#969699"/>
</svg>
