<svg width="80" height="80" viewBox="0 0 80 80" fill="none" xmlns="http://www.w3.org/2000/svg">
<rect x="1" y="1" width="78" height="78" rx="39" stroke="#15559F" stroke-width="2"/>
<path fill-rule="evenodd" clip-rule="evenodd" d="M40.3973 44.6324C41.4925 44.6324 42.3826 45.5191 42.3826 46.6177C42.3826 47.7129 41.4925 48.603 40.3973 48.603C39.2988 48.603 38.412 47.7129 38.412 46.6177C38.412 45.5191 39.2988 44.6324 40.3973 44.6324ZM34.3091 44.6324C35.4043 44.6324 36.2944 45.5191 36.2944 46.6177C36.2944 47.7129 35.4043 48.603 34.3091 48.603C33.2139 48.603 32.3238 47.7129 32.3238 46.6177C32.3238 45.5191 33.2139 44.6324 34.3091 44.6324ZM28.2208 44.6324C29.3194 44.6324 30.2061 45.5191 30.2061 46.6177C30.2061 47.7129 29.3194 48.603 28.2208 48.603C27.1256 48.603 26.2356 47.7129 26.2356 46.6177C26.2356 45.5191 27.1256 44.6324 28.2208 44.6324ZM46.7966 45.1419C46.9003 43.5699 47.5974 42.096 48.7467 41.0185C49.8961 39.941 51.4119 39.3404 52.9874 39.3382C54.633 39.3406 56.2107 39.995 57.3749 41.1581C58.5375 42.321 59.1909 43.8979 59.1914 45.5423C59.1914 48.0636 57.3319 49.5658 56.1043 50.5618C55.7933 50.8099 55.4955 51.0482 55.2606 51.2831C54.6153 51.925 54.5657 52.5107 54.5624 52.5338L54.5657 53.553C54.5657 53.6423 54.5326 53.7217 54.4697 53.7879C54.4036 53.8507 54.3242 53.8838 54.2348 53.8838H51.5878C51.5006 53.883 51.4173 53.8477 51.3559 53.7858C51.2946 53.7238 51.2602 53.6401 51.2602 53.553V52.4809C51.2602 51.207 52.051 49.8173 52.9245 48.9438C53.2753 48.6063 53.6458 48.2919 54.0264 47.9875C54.7444 47.4118 55.8859 46.568 55.8859 45.5423C55.8859 43.9441 54.5856 42.6438 52.9874 42.6438C51.505 42.6438 50.2808 43.7621 50.1087 45.2015C50.0922 45.3669 49.9499 45.4927 49.7811 45.4927H47.1275C47.0315 45.4927 46.9488 45.4563 46.8859 45.3868C46.8542 45.3549 46.8298 45.3164 46.8144 45.2742C46.7989 45.2319 46.7929 45.1868 46.7966 45.1419V45.1419ZM51.6639 55.8824H54.3109C54.4929 55.8824 54.6418 56.028 54.6418 56.2132V58.8603C54.6418 59.0423 54.4929 59.1912 54.3109 59.1912H51.6639C51.4819 59.1912 51.333 59.0423 51.333 58.8603V56.2132C51.333 56.028 51.4819 55.8824 51.6639 55.8824ZM43.3091 34.0441V30.7353C43.3091 27.4629 40.6223 24.7794 37.3499 24.7794C34.0808 24.7794 31.394 27.4629 31.394 30.7353V34.0441H43.3091ZM24.1179 37.353V55.8824H48.6859C49.0532 55.8824 49.3477 56.1769 49.3477 56.5441V58.5294C49.3477 58.7049 49.278 58.8733 49.1539 58.9974C49.0298 59.1215 48.8614 59.1912 48.6859 59.1912H24.1179C22.2981 59.1912 20.8091 57.7022 20.8091 55.8824V37.353C20.8091 35.5331 22.2981 34.0441 24.1179 34.0441H27.4234V30.7353C27.4234 25.2724 31.887 20.8088 37.3499 20.8088C42.8128 20.8088 47.2764 25.2724 47.2764 30.7353V34.0441H50.5852C52.405 34.0441 53.894 35.5331 53.894 37.353H24.1179Z" fill="#15559F"/>
</svg>
