<svg width="80" height="80" viewBox="0 0 80 80" fill="none" xmlns="http://www.w3.org/2000/svg">
<rect x="1" y="1" width="78" height="78" rx="39" stroke="#15559F" stroke-width="2"/>
<path fill-rule="evenodd" clip-rule="evenodd" d="M24.1179 26.103H55.8826C57.7025 26.103 59.1914 27.5919 59.1914 29.4118V50.5883C59.1914 52.4081 57.7025 53.8971 55.8826 53.8971H24.1179C22.2981 53.8971 20.8091 52.4081 20.8091 50.5883V29.4118C20.8091 27.5919 22.2981 26.103 24.1179 26.103ZM40.0003 42.5015L55.8826 31.0662V29.4118H24.1179V31.0662L40.0003 42.5015ZM55.8826 35.1427L40.9664 45.8831C40.3808 46.3066 39.6197 46.3066 39.0341 45.8831L24.1179 35.1427V50.5883H55.8826V35.1427V35.1427Z" fill="#15559F"/>
</svg>
