<svg xmlns="http://www.w3.org/2000/svg" width="320" height="97" fill="none"><g clip-path="url(#a)"><path fill="#FFBF08" fill-rule="evenodd" d="M234.079 0h74.86c6.054 0 11.009 4.96 11.009 11.023v74.955c0 6.062-4.955 11.022-11.009 11.022h-74.86c-6.055 0-11.009-4.96-11.009-11.022V11.023C223.07 4.96 228.024 0 234.079 0Z" clip-rule="evenodd"/><path fill="#fff" d="M271.403 59.348 288.69 83.98h15.678L279.23 48.167l25.138-35.815H288.69l-17.287 24.634-17.288-24.633h-15.678l25.138 35.814-25.138 35.814h15.678l17.288-24.633Z"/><path fill="#000" d="M158.349 62.89c2.128 0 3.905-.54 5.311-1.627 1.407-1.087 2.463-2.609 3.184-4.557.712-1.957 1.064-4.235 1.064-6.836v-.608c0-2.566-.361-4.819-1.082-6.766-.721-1.94-1.794-3.462-3.21-4.549-1.415-1.087-3.182-1.626-5.293-1.626-2.092 0-3.833.54-5.223 1.618-1.398 1.077-2.436 2.583-3.131 4.522-.703 1.93-1.045 4.2-1.045 6.8v.61c0 2.6.342 4.878 1.045 6.835.695 1.948 1.742 3.47 3.14 4.557 1.398 1.087 3.148 1.626 5.24 1.626Zm0 5.791c-2.523-.008-4.827-.47-6.901-1.409a15.75 15.75 0 0 1-5.373-3.93c-1.504-1.696-2.656-3.68-3.464-5.966-.81-2.279-1.215-4.784-1.215-7.506v-.556c0-2.705.405-5.192 1.215-7.48.808-2.286 1.96-4.278 3.455-5.974a15.55 15.55 0 0 1 5.354-3.948c2.075-.93 4.38-1.4 6.903-1.4 2.541 0 4.863.47 6.955 1.4a15.682 15.682 0 0 1 5.417 3.948c1.504 1.696 2.673 3.688 3.482 5.974.818 2.288 1.231 4.775 1.231 7.48v.556c0 2.722-.413 5.227-1.231 7.506-.809 2.286-1.978 4.27-3.482 5.965a15.859 15.859 0 0 1-5.399 3.931c-2.093.94-4.405 1.401-6.947 1.41Zm-43.031-.54v-4.46l4.018-.765V36.782h-6.833l-.413 4.427h-5.689V31.042h33.466V41.21h-5.724l-.413-4.427h-6.876v26.134l4.045.764v4.462h-15.581Zm-23.494.54c-3.64-.008-6.807-.756-9.506-2.261-2.69-1.504-4.774-3.635-6.243-6.392-1.468-2.757-2.207-6.027-2.207-9.801v-1.244c0-3.6.712-6.792 2.128-9.566 1.415-2.782 3.438-4.957 6.067-6.54 2.63-1.574 5.75-2.365 9.374-2.365 2.55 0 4.924.356 7.148 1.069 2.225.713 4.212 1.8 5.971 3.262v8.965h-5.593l-.774-5.626a9.586 9.586 0 0 0-1.855-1.043 10.372 10.372 0 0 0-2.18-.67 13.506 13.506 0 0 0-2.533-.227c-2.128 0-3.956.522-5.487 1.558-1.53 1.034-2.7 2.496-3.517 4.391-.817 1.896-1.222 4.14-1.222 6.74v1.296c0 2.6.43 4.853 1.283 6.757.862 1.896 2.085 3.375 3.659 4.418 1.582 1.044 3.455 1.566 5.618 1.566 1.082 0 2.172-.123 3.262-.366a16.979 16.979 0 0 0 2.972-.956l.774-5.227h5.593v8.87c-1.46.949-3.28 1.757-5.461 2.41-2.19.652-4.607.974-7.271.982ZM53.935 62.89c2.128 0 3.904-.54 5.311-1.626 1.407-1.087 2.462-2.609 3.183-4.557.712-1.957 1.064-4.235 1.064-6.836v-.608c0-2.566-.36-4.819-1.082-6.766-.72-1.94-1.793-3.462-3.209-4.549-1.416-1.087-3.183-1.626-5.293-1.626-2.094 0-3.834.54-5.223 1.618-1.398 1.077-2.436 2.583-3.13 4.522-.704 1.93-1.047 4.2-1.047 6.8v.61c0 2.6.343 4.878 1.046 6.835.695 1.948 1.741 3.47 3.14 4.557 1.397 1.087 3.147 1.626 5.24 1.626Zm0 5.792c-2.523-.008-4.828-.47-6.903-1.409a15.76 15.76 0 0 1-5.372-3.93c-1.503-1.696-2.655-3.68-3.465-5.966-.808-2.279-1.213-4.784-1.213-7.506v-.556c0-2.705.405-5.192 1.213-7.48.81-2.286 1.962-4.278 3.456-5.974a15.542 15.542 0 0 1 5.355-3.948c2.075-.93 4.379-1.4 6.903-1.4 2.541 0 4.862.47 6.955 1.4a15.694 15.694 0 0 1 5.416 3.948c1.504 1.696 2.674 3.688 3.482 5.974.818 2.288 1.231 4.775 1.231 7.48v.556c0 2.722-.413 5.227-1.23 7.506-.81 2.286-1.979 4.27-3.483 5.965a15.87 15.87 0 0 1-5.398 3.931c-2.093.94-4.406 1.401-6.947 1.41Zm-42.32-6.218h4.616c2.076 0 3.834-.54 5.276-1.617 1.451-1.079 2.55-2.566 3.315-4.453.765-1.878 1.143-4.027 1.143-6.444v-.714c0-2.443-.378-4.609-1.143-6.479-.765-1.878-1.864-3.347-3.315-4.41-1.442-1.06-3.2-1.59-5.276-1.59h-4.616v25.707ZM.052 68.142V63.68l4.045-.834V36.398l-4.045-.87v-4.487h16.461c3.35 0 6.305.783 8.863 2.33 2.558 1.557 4.555 3.706 5.988 6.454 1.433 2.74 2.155 5.887 2.155 9.435v.688c0 3.513-.713 6.644-2.128 9.392-1.416 2.74-3.395 4.896-5.936 6.453-2.541 1.565-5.486 2.348-8.837 2.348H.052Zm189.33-20.274h6.14c2.166 0 3.787-.45 4.862-1.357 1.075-.9 1.612-2.215 1.612-3.936 0-1.704-.529-3.07-1.594-4.09-1.066-1.021-2.652-1.532-4.749-1.532h-6.271v10.915Zm-11.539 20.274v-4.436l3.999-.762V36.469l-3.999-.762v-4.462h17.81c2.89 0 5.365.44 7.426 1.323 2.071.874 3.656 2.136 4.766 3.771 1.109 1.644 1.664 3.607 1.664 5.907 0 2.163-.555 4.092-1.655 5.804-1.101 1.704-2.634 3.044-4.59 4.03l-.085.042 4.78 10.848 3.198.736v4.436h-9.134l-5.783-14.574h-6.858v9.376l4.026.761v4.437h-15.565ZM5.989 83.56c-.665-.002-1.22-.147-1.664-.44a2.689 2.689 0 0 1-1-1.197c-.224-.507-.336-1.084-.336-1.728V80.1c0-.65.118-1.229.351-1.735a2.84 2.84 0 0 1 1.006-1.196c.437-.29.96-.437 1.565-.437.43 0 .82.067 1.174.2.357.134.65.304.885.512v1.43h-.717l-.095-1.048a1.413 1.413 0 0 0-.334-.192 2.05 2.05 0 0 0-.42-.118 2.768 2.768 0 0 0-.497-.041c-.434 0-.8.112-1.102.336-.3.222-.528.53-.682.922-.155.391-.232.844-.232 1.358v.104c0 .557.083 1.031.248 1.424.166.394.406.694.723.901.317.206.704.31 1.16.31.211 0 .419-.027.622-.078.204-.051.372-.119.505-.2l.101-.926h.7v1.44a3.147 3.147 0 0 1-.89.363 4.49 4.49 0 0 1-1.071.13Zm5.91 0a2.645 2.645 0 0 1-1.152-.248 2.476 2.476 0 0 1-.867-.694c-.238-.3-.42-.655-.545-1.065a4.604 4.604 0 0 1-.19-1.358V80.1c0-.493.064-.944.19-1.356.126-.411.307-.767.545-1.069.239-.3.528-.532.867-.696a2.63 2.63 0 0 1 1.152-.247c.453 0 .849.083 1.192.247.343.164.63.396.863.696.233.302.408.658.526 1.069a4.9 4.9 0 0 1 .177 1.356v.095c0 .496-.059.95-.177 1.358-.118.41-.293.765-.526 1.066-.232.298-.52.53-.863.693-.343.165-.74.246-1.192.248Zm0-.75c.44 0 .796-.108 1.068-.327.27-.22.471-.525.598-.918.128-.393.191-.85.191-1.37v-.104c0-.516-.065-.971-.194-1.362-.129-.388-.33-.694-.602-.914-.275-.221-.627-.331-1.06-.331-.398 0-.735.112-1.012.332-.276.223-.485.528-.627.918-.143.39-.215.843-.215 1.357v.104c0 .516.072.972.215 1.366.143.393.351.7.627.92.277.22.614.33 1.011.33Zm3.785.653v-.574l.743-.128v-5.228l-.743-.127v-.579H17.332L20.582 82l.026-.009v-4.458l-.814-.127v-.579h2.38v.58l-.742.126v5.93h-.819l-3.335-5.2-.028.009v4.49l.814.127v.574h-2.38Zm7.567 0v-.574l.743-.128v-5.228l-.743-.127v-.579h4.907v1.596h-.719l-.101-.902H24.89v2.159h2.443v.706H24.89v2.401h2.594l.1-.914h.714v1.59h-5.047Zm9.27.097c-.665-.002-1.22-.147-1.665-.44a2.687 2.687 0 0 1-1-1.197c-.223-.507-.335-1.084-.335-1.728V80.1c0-.65.117-1.229.35-1.735a2.84 2.84 0 0 1 1.006-1.196c.438-.29.96-.437 1.566-.437.428 0 .82.067 1.175.2.355.134.649.304.883.512v1.43h-.716l-.095-1.048a1.415 1.415 0 0 0-.334-.192 2.05 2.05 0 0 0-.42-.118 2.772 2.772 0 0 0-.498-.041c-.433 0-.8.112-1.102.336-.299.222-.527.53-.681.922-.156.391-.232.844-.232 1.358v.104c0 .557.083 1.031.248 1.424.166.394.406.694.723.901.317.206.703.31 1.16.31.21 0 .418-.027.622-.078.204-.051.372-.119.505-.2l.1-.926h.701v1.44a3.137 3.137 0 0 1-.892.363 4.478 4.478 0 0 1-1.07.13Zm4.708-.097v-.574l.743-.128v-5.254h-1.503l-.132.92h-.674v-1.6h5.507v1.6h-.665l-.135-.92h-1.502v5.254l.741.128v.574h-2.38Zm3.953 0v-.574l.493-.069 2.316-5.993h.77l2.275 5.993.486.07v.573H45.62v-.574l.501-.087-.436-1.22h-2.653l-.453 1.22.502.087v.574h-1.899Zm2.126-2.634h2.103l-.974-2.698-.054-.15h-.028l-.054.15-.993 2.698Zm5.242 2.634v-.574l.742-.128v-5.228l-.742-.127v-.579h1.647L53.447 82l.026-.009v-4.458l-.814-.127v-.579h2.38v.58l-.742.126v5.93h-.819l-3.335-5.2-.028.009v4.49l.814.127v.574h-2.38Zm7.566 0v-.574l.743-.128v-5.228l-.743-.127v-.579h2.595c.585 0 1.096.14 1.53.42.436.28.776.665 1.018 1.153.243.49.364 1.048.364 1.677v.14c0 .615-.116 1.168-.35 1.657a2.82 2.82 0 0 1-.994 1.163c-.43.285-.936.426-1.522.426h-2.64Zm1.639-.702h.956c.418 0 .777-.114 1.079-.343.3-.23.531-.537.693-.92.163-.386.244-.811.244-1.28v-.15c0-.483-.081-.916-.244-1.296a2.13 2.13 0 0 0-.693-.905 1.772 1.772 0 0 0-1.08-.334h-.955v5.228Zm7.818.799a2.645 2.645 0 0 1-1.152-.248 2.476 2.476 0 0 1-.867-.694c-.237-.3-.42-.655-.545-1.065a4.604 4.604 0 0 1-.19-1.358V80.1c0-.493.064-.944.19-1.356.126-.411.308-.767.545-1.069.24-.3.528-.532.867-.696a2.63 2.63 0 0 1 1.152-.247c.453 0 .849.083 1.192.247.343.164.63.396.863.696.232.302.408.658.526 1.069a4.9 4.9 0 0 1 .177 1.356v.095c0 .496-.059.95-.177 1.358-.118.41-.294.765-.526 1.066-.233.298-.52.53-.863.693-.343.165-.74.246-1.192.248Zm0-.75c.44 0 .796-.108 1.068-.327.27-.22.47-.525.598-.918s.191-.85.191-1.37v-.104c0-.516-.065-.971-.194-1.362-.129-.388-.33-.694-.603-.914-.273-.221-.626-.331-1.06-.331-.397 0-.734.112-1.01.332-.278.223-.486.528-.628.918-.143.39-.215.843-.215 1.357v.104c0 .516.072.972.215 1.366.142.393.35.7.627.92.276.22.614.33 1.011.33Zm6.15.653v-.574l.744-.128v-5.228l-.743-.127v-.579H73.662l2.135 5.037h.028l2.066-5.037h1.998v.58l-.741.126v5.228l.741.128v.574h-2.38v-.574l.782-.128v-4.708l-.023-.003-2.151 5.176h-.596l-2.227-5.168-.022.005.032 2.774v1.924l.801.128v.574h-2.382Zm9.293 0v-.574l.744-.128v-5.228l-.744-.127v-.579h4.908v1.596h-.72l-.1-.902h-2.448v2.159h2.443v.706h-2.443v2.401h2.594l.1-.914h.714v1.59h-5.048Zm2.051-7.213.838-1.24h1.047l.01.027-1.225 1.213h-.67Zm4.225 7.213v-.574l.742-.128v-5.228l-.742-.127v-.579h2.593c.587 0 1.097.14 1.532.42.435.28.775.665 1.018 1.153.242.49.363 1.048.363 1.677v.14c0 .615-.116 1.168-.35 1.657-.233.49-.564.878-.993 1.163-.431.285-.938.426-1.523.426h-2.64Zm1.638-.702h.955c.42 0 .779-.114 1.08-.343.3-.23.531-.537.693-.92.163-.386.244-.811.244-1.28v-.15c0-.483-.081-.916-.244-1.296a2.13 2.13 0 0 0-.693-.905 1.772 1.772 0 0 0-1.08-.334h-.955v5.228Zm4.864.702v-.574l.743-.128v-5.228l-.743-.127v-.579h2.381v.58l-.742.126v5.228l.742.128v.574h-2.38Zm6.444.097c-.665-.002-1.22-.147-1.663-.44a2.683 2.683 0 0 1-1.001-1.197c-.224-.507-.336-1.084-.336-1.728V80.1c0-.65.118-1.229.35-1.735a2.841 2.841 0 0 1 1.006-1.196c.438-.29.96-.437 1.566-.437.429 0 .821.067 1.175.2.355.134.649.304.883.512v1.43h-.715l-.095-1.048a1.413 1.413 0 0 0-.334-.192 2.052 2.052 0 0 0-.42-.118 2.773 2.773 0 0 0-.499-.041c-.433 0-.8.112-1.101.336-.3.222-.528.53-.682.922-.156.391-.231.844-.231 1.358v.104c0 .557.082 1.031.247 1.424.166.394.407.694.724.901.317.206.703.31 1.159.31.211 0 .419-.027.623-.078.203-.051.371-.119.504-.2l.101-.926h.7v1.44a3.132 3.132 0 0 1-.891.363 4.477 4.477 0 0 1-1.07.13Zm5.911 0a2.642 2.642 0 0 1-1.153-.248 2.485 2.485 0 0 1-.867-.694 3.239 3.239 0 0 1-.545-1.065 4.601 4.601 0 0 1-.189-1.358V80.1c0-.493.063-.944.189-1.356.126-.411.308-.767.545-1.069.239-.3.529-.532.867-.696.34-.164.724-.247 1.153-.247.452 0 .848.083 1.192.247.343.164.63.396.861.696.233.302.409.658.527 1.069.119.412.177.863.177 1.356v.095c0 .496-.058.95-.177 1.358-.118.41-.294.765-.527 1.066-.231.298-.518.53-.861.693-.344.165-.74.246-1.192.248Zm0-.75c.439 0 .795-.108 1.067-.327.27-.22.471-.525.598-.918s.191-.85.191-1.37v-.104c0-.516-.065-.971-.194-1.362-.129-.388-.33-.694-.603-.914-.273-.221-.626-.331-1.059-.331-.398 0-.735.112-1.011.332-.277.223-.485.528-.628.918-.143.39-.214.843-.214 1.357v.104c0 .516.071.972.214 1.366.143.393.351.7.628.92.276.22.613.33 1.011.33Zm6.164.75a3.895 3.895 0 0 1-1.165-.18 3.75 3.75 0 0 1-1.069-.546v-1.416h.696l.15 1.042a2.603 2.603 0 0 0 1.388.384c.305 0 .56-.047.772-.14.212-.092.373-.22.485-.384a1 1 0 0 0 .168-.575.999.999 0 0 0-.145-.537c-.098-.156-.258-.292-.48-.408-.224-.118-.528-.22-.914-.308a4.413 4.413 0 0 1-1.153-.426 1.966 1.966 0 0 1-.714-.648 1.575 1.575 0 0 1-.243-.872c0-.347.091-.656.274-.93.184-.274.44-.489.767-.647a2.623 2.623 0 0 1 1.147-.237c.465 0 .875.07 1.231.212.357.141.65.313.881.514v1.325h-.697l-.15-.948c-.135-.11-.307-.2-.51-.274a2.26 2.26 0 0 0-.755-.108c-.254 0-.48.045-.674.133-.194.09-.345.215-.455.377a.987.987 0 0 0-.163.57.86.86 0 0 0 .147.5c.1.143.26.269.483.376.222.108.521.208.894.304.698.172 1.227.43 1.586.766.36.34.54.758.54 1.257 0 .355-.096.67-.287.946-.191.274-.46.49-.808.644-.348.155-.756.232-1.227.234Zm5.746-.097v-.574l.743-.128v-5.228l-.743-.127v-.579h4.907v1.596h-.719l-.1-.902h-2.449v2.159h2.444v.706h-2.444v2.401h2.594l.1-.914h.714v1.59h-5.047Zm11.295.097a2.638 2.638 0 0 1-1.152-.248 2.476 2.476 0 0 1-.867-.694 3.239 3.239 0 0 1-.545-1.065 4.601 4.601 0 0 1-.189-1.358V80.1c0-.493.063-.944.189-1.356.126-.411.308-.767.545-1.069.239-.3.528-.532.867-.696.34-.164.723-.247 1.152-.247.453 0 .849.083 1.192.247.343.164.631.396.862.696.233.302.408.658.527 1.069.118.412.177.863.177 1.356v.095c0 .496-.059.95-.177 1.358-.119.41-.294.765-.527 1.066-.231.298-.519.53-.862.693-.343.165-.739.246-1.192.248Zm0-.75c.441 0 .796-.108 1.068-.327.27-.22.47-.525.598-.918.127-.393.191-.85.191-1.37v-.104c0-.516-.065-.971-.194-1.362-.129-.388-.33-.694-.603-.914-.273-.221-.626-.331-1.06-.331-.397 0-.734.112-1.01.332-.277.223-.485.528-.628.918-.144.39-.215.843-.215 1.357v.104c0 .516.071.972.215 1.366.143.393.351.7.628.92.276.22.613.33 1.01.33Zm3.775.653v-.574l.743-.128v-5.228l-.743-.127v-.579h3.045c.474 0 .878.084 1.212.249.332.165.589.397.764.695.176.297.264.646.264 1.044 0 .402-.088.75-.264 1.049a1.781 1.781 0 0 1-.764.692c-.334.163-.738.245-1.212.245h-1.405v1.96l.742.128v.574h-2.382Zm1.64-3.363h1.405c.45 0 .786-.121 1.008-.362.224-.241.336-.546.336-.913 0-.37-.112-.675-.336-.921-.222-.246-.558-.37-1.008-.37h-1.405V80.1Zm7.413 3.46a2.642 2.642 0 0 1-1.153-.248 2.485 2.485 0 0 1-.867-.694 3.22 3.22 0 0 1-.545-1.065 4.6 4.6 0 0 1-.19-1.358V80.1c0-.493.064-.944.19-1.356.126-.411.307-.767.545-1.069.239-.3.529-.532.867-.696.34-.164.724-.247 1.153-.247.452 0 .848.083 1.191.247.344.164.631.396.862.696.233.302.409.658.527 1.069.118.412.177.863.177 1.356v.095c0 .496-.059.95-.177 1.358-.118.41-.294.765-.527 1.066-.231.298-.518.53-.862.693-.343.165-.739.246-1.191.248Zm0-.75c.439 0 .795-.108 1.067-.327.27-.22.47-.525.598-.918.127-.393.191-.85.191-1.37v-.104c0-.516-.065-.971-.195-1.362-.128-.388-.329-.694-.602-.914-.273-.221-.626-.331-1.059-.331-.399 0-.735.112-1.011.332-.277.223-.485.528-.628.918-.143.39-.214.843-.214 1.357v.104c0 .516.071.972.214 1.366.143.393.351.7.628.92.276.22.612.33 1.011.33Zm3.775.653v-.574l.742-.128v-5.228l-.742-.127v-.574h2.954c.482 0 .889.073 1.222.217.332.143.585.354.757.626.172.274.26.608.26 1.003 0 .39-.084.715-.252.98a1.573 1.573 0 0 1-.718.599c-.308.135-.675.207-1.101.217l-1.484.028v2.26l.743.127v.574h-2.381Zm4.374 0-1.474-3.313.896-.01 1.225 2.652.459.083v.588h-1.106Zm-2.736-3.668h1.225c.499 0 .865-.096 1.092-.288.228-.191.342-.471.342-.838 0-.35-.109-.625-.328-.83-.22-.203-.556-.306-1.015-.306h-1.316v2.262Zm6.266 3.668v-.574l.742-.128v-5.254h-1.502l-.132.92h-.675v-1.6h5.508v1.6h-.665l-.135-.92h-1.503v5.254l.742.128v.574h-2.38Zm8.164.097a2.708 2.708 0 0 1-1.22-.27 2.063 2.063 0 0 1-.847-.769c-.207-.332-.31-.73-.31-1.196v-3.792l-.742-.127v-.579h2.38v.58l-.74.126v3.792c0 .332.061.61.187.834.126.226.301.395.527.509.224.114.483.17.779.17.296 0 .56-.055.788-.168.229-.112.409-.28.538-.506.128-.225.193-.504.193-.839v-3.792l-.742-.127v-.579h2.38v.58l-.742.126v3.792c0 .481-.101.887-.301 1.22a1.923 1.923 0 0 1-.851.756c-.363.17-.79.257-1.277.259Zm4.198-.097v-.574l.743-.128v-5.228l-.743-.127v-.579h1.649l3.25 5.173.026-.009v-4.458l-.814-.127v-.579h2.379v.58l-.742.126v5.93h-.819l-3.335-5.2-.028.009v4.49l.814.127v.574h-2.38Zm7.567 0v-.574l.743-.128v-5.228l-.743-.127v-.579h2.381v.58l-.742.126v5.228l.742.128v.574h-2.381Zm3.449 0v-.574l.742-.128v-5.228l-.742-.127v-.579H179.834c.585 0 1.096.14 1.531.42.434.28.775.665 1.017 1.153.243.49.364 1.048.364 1.677v.14c0 .615-.117 1.168-.35 1.657a2.82 2.82 0 0 1-.994 1.163c-.431.285-.937.426-1.523.426h-2.64Zm1.639-.702h.956a1.73 1.73 0 0 0 1.078-.343c.301-.23.532-.537.693-.92.164-.386.245-.811.245-1.28v-.15c0-.483-.081-.916-.245-1.296a2.122 2.122 0 0 0-.693-.905 1.77 1.77 0 0 0-1.078-.334h-.956v5.228Zm4.496.702v-.574l.492-.069 2.316-5.993h.769l2.276 5.993.486.07v.573h-1.901v-.574l.5-.087-.437-1.22h-2.653l-.452 1.22.502.087v.574h-1.898Zm2.125-2.634h2.103l-.974-2.698-.054-.15h-.028l-.055.15-.992 2.698Zm5.231 2.634v-.574l.743-.128v-5.228l-.743-.127v-.579h2.595c.585 0 1.096.14 1.532.42.435.28.775.665 1.017 1.153.243.49.364 1.048.364 1.677v.14c0 .615-.116 1.168-.35 1.657-.235.49-.566.878-.994 1.163-.431.285-.937.426-1.523.426h-2.641Zm1.64-.702h.955c.419 0 .778-.114 1.08-.343.299-.23.531-.537.693-.92.163-.386.243-.811.243-1.28v-.15c0-.483-.08-.916-.243-1.296a2.146 2.146 0 0 0-.693-.905 1.776 1.776 0 0 0-1.08-.334h-.955v5.228Zm4.863.702v-.574l.743-.128v-5.228l-.743-.127v-.579h4.908v1.596h-.72l-.101-.902h-2.447v2.159h2.443v.706h-2.443v2.401h2.594l.099-.914h.715v1.59h-5.048Zm8.664.097a3.9 3.9 0 0 1-1.165-.18 3.762 3.762 0 0 1-1.069-.546v-1.416h.697l.15 1.042a2.612 2.612 0 0 0 1.387.384c.304 0 .561-.047.773-.14.21-.092.372-.22.484-.384a.999.999 0 0 0 .167-.575.99.99 0 0 0-.144-.537c-.098-.156-.257-.292-.479-.408-.224-.118-.529-.22-.914-.308a4.442 4.442 0 0 1-1.155-.426 1.967 1.967 0 0 1-.712-.648 1.576 1.576 0 0 1-.245-.872c0-.347.093-.656.275-.93.184-.274.44-.489.768-.647.327-.157.71-.237 1.146-.237.465 0 .875.07 1.231.212.357.141.651.313.88.514v1.325h-.695l-.151-.948c-.136-.11-.306-.2-.51-.274a2.26 2.26 0 0 0-.755-.108c-.254 0-.479.045-.674.133-.194.09-.344.215-.455.377a.994.994 0 0 0-.163.57c0 .19.05.358.148.5.099.143.259.269.483.376.222.108.52.208.893.304.699.172 1.228.43 1.586.766.361.34.541.758.541 1.257 0 .355-.097.67-.288.946-.191.274-.459.49-.807.644-.348.155-.758.232-1.228.234Z"/></g><defs><clipPath id="a"><path fill="#fff" d="M0 0h320v97H0z"/></clipPath></defs></svg>