<svg width="18" height="18" viewBox="0 0 18 18" fill="none" xmlns="http://www.w3.org/2000/svg">
<path fill-rule="evenodd" clip-rule="evenodd" d="M9 0.84375C13.5042 0.84375 17.1562 4.49578 17.1562 9C17.1562 13.2033 13.9753 16.6641 9.89016 17.107V11.2936H11.8027C12.0122 11.2936 12.1542 11.1192 12.1852 10.9111L12.4397 9.12797C12.4692 8.91984 12.2667 8.74547 12.0572 8.74547H9.89016V7.20563C9.89016 6.63609 10.3556 6.17063 10.9252 6.17063H12.0572C12.1585 6.17025 12.2556 6.12984 12.3272 6.05818C12.3989 5.98653 12.4393 5.88946 12.4397 5.78813V4.28484C12.4397 4.07531 12.2667 3.90234 12.0572 3.90234H10.2727C8.65828 3.90234 7.34203 5.21859 7.34203 6.83297V8.74547H5.94C5.83867 8.74584 5.74159 8.78626 5.66994 8.85791C5.59829 8.92956 5.55787 9.02664 5.5575 9.12797V10.9111C5.5575 11.122 5.73047 11.2936 5.94 11.2936H7.34203V16.9875C3.63234 16.2211 0.84375 12.9361 0.84375 9C0.84375 4.49578 4.49578 0.84375 9 0.84375Z" fill="#4285F4"/>
</svg>
