<svg xmlns="http://www.w3.org/2000/svg" width="360" height="100" fill="none"><path fill="url(#a)" fill-rule="evenodd" d="m360 46.405-15-3.573c-15-3.573-45-10.719-75-5.36-30 5.36-60 23.225-90 17.866-30-5.36-60-33.944-90-35.73-30-1.787-60 23.224-75 35.73L0 67.843V100h360V46.405Z" clip-rule="evenodd"/><path fill="url(#b)" fill-rule="evenodd" d="m0 24.144 6 7.225c6 7.224 18 21.673 30 28.897s24 7.224 36 0 24-21.673 36-32.51c12-10.836 24-18.06 36-21.673 12-3.612 24-3.612 36 1.806 12 5.419 24 16.255 36 28.898s24 27.091 36 21.673c12-5.418 24-30.704 36-45.152 12-14.449 24-18.061 36-5.419 12 12.643 24 41.54 30 55.99l6 14.448V100H0V24.144Z" clip-rule="evenodd"/><defs><linearGradient id="a" x1="180" x2="180" y1="19.517" y2="100" gradientUnits="userSpaceOnUse"><stop stop-color="#FFBF08" stop-opacity="0"/><stop offset="1" stop-color="#FFBF08"/></linearGradient><linearGradient id="b" x1="180" x2="180" y1=".16" y2="100" gradientUnits="userSpaceOnUse"><stop stop-color="#FFBF08" stop-opacity="0"/><stop offset="1" stop-color="#FFBF08"/></linearGradient></defs></svg>