<svg width="18" height="18" viewBox="0 0 18 18" fill="none" xmlns="http://www.w3.org/2000/svg">
<path fill-rule="evenodd" clip-rule="evenodd" d="M14.4787 15.0412C16.1227 13.5492 17.1562 11.3948 17.1562 9C17.1562 8.44594 17.1 7.90594 16.9945 7.38281H9V10.6172H13.6491C13.3605 11.4456 12.8561 12.182 12.188 12.7505L14.4787 15.0412Z" fill="#4285F4"/>
<path fill-rule="evenodd" clip-rule="evenodd" d="M1.7998 12.832C3.1709 15.4054 5.88074 17.1562 8.9998 17.1562C11.1092 17.1562 13.0315 16.3546 14.4786 15.0412L12.1878 12.7504C11.3286 13.4803 10.2162 13.9218 8.9998 13.9218C7.07746 13.9218 5.41387 12.8193 4.60387 11.2134L1.7998 12.832Z" fill="#34A853"/>
<path fill-rule="evenodd" clip-rule="evenodd" d="M1.8 5.16797C1.18969 6.30984 0.84375 7.61484 0.84375 9C0.84375 10.3852 1.18969 11.6902 1.8 12.832L4.60406 11.2134C4.25736 10.5272 4.07718 9.76888 4.07812 9C4.07812 8.20406 4.26797 7.45172 4.60406 6.78656L1.8 5.16797Z" fill="#FBBC05"/>
<path fill-rule="evenodd" clip-rule="evenodd" d="M8.9998 4.07812C10.2162 4.07812 11.3286 4.51969 12.1878 5.24953L14.4786 2.95875C13.0315 1.64531 11.1092 0.84375 8.9998 0.84375C5.88074 0.84375 3.1709 2.59453 1.7998 5.16797L4.60387 6.78656C5.41387 5.18062 7.07746 4.07812 8.9998 4.07812Z" fill="#EA4335"/>
</svg>
