<svg xmlns="http://www.w3.org/2000/svg" width="360" height="90" fill="none"><path fill="url(#a)" fill-rule="evenodd" d="m0 32.385 15 8.996c15 8.996 45 26.988 75 37.783 30 10.795 60 14.393 90 3.598 30-10.795 60-35.983 90-37.783 30-1.799 60 19.791 75 30.586l15 10.795V0H0v32.385Z" clip-rule="evenodd"/><path fill="url(#b)" fill-rule="evenodd" d="m0 53.986 15 3.599c15 3.599 45 10.797 75 5.398 30-5.398 60-23.393 90-17.995 30 5.399 60 34.191 90 35.99 30 1.8 60-23.393 75-35.99l15-12.596V0H0v53.986Z" clip-rule="evenodd"/><defs><linearGradient id="a" x1="180" x2="180" y1="89.28" y2="0" gradientUnits="userSpaceOnUse"><stop stop-color="#FFBF08" stop-opacity="0"/><stop offset="0" stop-color="#FFBF08" stop-opacity="0"/><stop offset="1" stop-color="#FFBF08"/></linearGradient><linearGradient id="b" x1="180" x2="180" y1="81.07" y2="0" gradientUnits="userSpaceOnUse"><stop stop-color="#FFBF08" stop-opacity="0"/><stop offset="0" stop-color="#FFBF08" stop-opacity="0"/><stop offset="1" stop-color="#FFBF08"/></linearGradient></defs></svg>