<svg width="18" height="18" viewBox="0 0 18 18" fill="none" xmlns="http://www.w3.org/2000/svg">
<g clip-path="url(#clip0_84582_5376)">
<path fill-rule="evenodd" clip-rule="evenodd" d="M9.00006 0.845215C13.5043 0.845215 17.1549 4.49584 17.1549 9.00006C17.1549 13.5043 13.5043 17.1549 9.00006 17.1549C4.49584 17.1549 0.845215 13.5043 0.845215 9.00006C0.845215 4.49584 4.49584 0.845215 9.00006 0.845215ZM6.36615 7.24787C6.40834 6.61084 6.67975 6.00896 7.13397 5.55475C7.62896 5.06115 8.29834 4.78271 8.99725 4.78131C9.69756 4.78271 10.3669 5.05975 10.8619 5.55475C11.3555 6.04975 11.634 6.71912 11.634 7.41943C11.634 8.48959 10.8437 9.12803 10.3219 9.55131C10.1897 9.65818 10.0632 9.75803 9.96334 9.85787C9.68912 10.1321 9.66803 10.3796 9.66803 10.3908V10.8226C9.66821 10.8411 9.66471 10.8594 9.65771 10.8766C9.65071 10.8937 9.64035 10.9093 9.62726 10.9224C9.61416 10.9355 9.59859 10.9459 9.58144 10.9529C9.56429 10.9599 9.54592 10.9634 9.5274 10.9632H8.40381C8.32646 10.9632 8.26318 10.8999 8.26318 10.8226V10.3669C8.26318 9.82553 8.59928 9.2349 8.97193 8.86365C9.11959 8.72021 9.27709 8.58803 9.43881 8.45865C9.74397 8.21256 10.2291 7.85396 10.2291 7.41943C10.2291 6.74021 9.67647 6.18615 8.99725 6.18615C8.36725 6.18615 7.84693 6.66287 7.77521 7.27318C7.76678 7.3449 7.70631 7.39693 7.63459 7.39693H6.50678C6.48755 7.3974 6.46844 7.39375 6.45074 7.38623C6.43303 7.37872 6.41714 7.3675 6.40412 7.35334C6.39061 7.3395 6.38024 7.32292 6.37369 7.30473C6.36714 7.28653 6.36457 7.26714 6.36615 7.24787ZM8.43475 11.8126H9.55975C9.63709 11.8126 9.70037 11.8758 9.70037 11.9532V13.0782C9.70037 13.1555 9.63709 13.2188 9.55975 13.2188H8.43475C8.3574 13.2188 8.29412 13.1555 8.29412 13.0782V11.9532C8.29412 11.8758 8.3574 11.8126 8.43475 11.8126Z" fill="#15559F"/>
</g>
<defs>
<clipPath id="clip0_84582_5376">
<rect width="18" height="18" fill="white"/>
</clipPath>
</defs>
</svg>
