<svg width="96" height="96" viewBox="0 0 96 96" fill="none" xmlns="http://www.w3.org/2000/svg">
<path fill-rule="evenodd" clip-rule="evenodd" d="M95.0827 30.7781C94.8202 35.4211 93.0566 39.859 90.2019 43.2879V86.9531C90.2019 91.4648 86.5105 95.1562 81.9987 95.1562H13.0925C8.58076 95.1562 4.88935 91.4648 4.88935 86.9531V43.2797C2.03467 39.859 0.279197 35.4211 0.0084936 30.7781C-0.0407252 29.966 0.123337 29.2605 0.517087 28.5469L14.0358 4.22461C15.5206 1.55039 18.1456 0 21.2054 0H73.8858C76.9456 0 79.5706 1.55039 81.0554 4.22461L94.5741 28.5469C94.9679 29.2605 95.1319 29.966 95.0827 30.7781V30.7781ZM57.3894 86.9531V68.9062H37.7019V86.9531H57.3894ZM65.5925 86.9531V68.9062C65.5925 64.3863 61.9011 60.7031 57.3894 60.7031H37.7019C33.1901 60.7031 29.4987 64.3945 29.4987 68.9062V86.9531H13.0925V48.9563C14.7987 49.5223 16.628 49.834 18.564 49.834C24.6671 49.834 29.753 46.766 33.0589 42.2297C36.3565 46.766 41.4425 49.834 47.5456 49.834C53.6487 49.834 58.7347 46.766 62.0405 42.2297C65.3382 46.766 70.4241 49.834 76.5273 49.834C78.4632 49.834 80.2925 49.5223 81.9987 48.9563V86.9531H65.5925ZM66.1421 29.5312C66.1421 35.4293 70.1862 41.6309 76.5273 41.6309C82.3269 41.6309 86.2069 36.4465 86.8304 31.057C86.937 30.1055 86.7566 29.2605 86.2562 28.4402L73.8776 8.20312H61.7288L66.1421 29.5312ZM57.939 29.5312L53.5257 8.20312H41.4671L37.1522 29.5312C37.1522 35.4293 41.2046 41.6309 47.5456 41.6309C53.8866 41.6309 57.939 35.4293 57.939 29.5312ZM33.264 8.20312H21.2054L8.83506 28.4484C8.33467 29.2605 8.1542 30.1055 8.26084 31.057C8.88428 36.4465 12.7644 41.6309 18.564 41.6309C24.905 41.6309 28.9491 35.4293 28.9491 29.5312L33.264 8.20312V8.20312Z" fill="#15559F"/>
</svg>
