<svg width="96" height="73" viewBox="0 0 96 73" fill="none" xmlns="http://www.w3.org/2000/svg">
<path fill-rule="evenodd" clip-rule="evenodd" d="M8.20312 0H86.9531C91.4648 0 95.1562 3.69141 95.1562 8.20312V63.9844C95.1562 68.4961 91.4648 72.1875 86.9531 72.1875H8.20312C3.69141 72.1875 0 68.4961 0 63.9844V8.20312C0 3.69141 3.69141 0 8.20312 0ZM86.9531 23.7891C78.3398 23.7891 71.3672 16.8082 71.3672 8.20312H23.7891C23.7891 16.8082 16.8164 23.7891 8.20312 23.7891V48.3984C16.8164 48.3984 23.7891 55.3793 23.7891 63.9844H71.3672C71.3672 55.3793 78.3398 48.3984 86.9531 48.3984V23.7891ZM47.5781 18.0469C37.6113 18.0469 29.5312 26.127 29.5312 36.0938C29.5312 46.0605 37.6113 54.1406 47.5781 54.1406C57.5449 54.1406 65.625 46.0605 65.625 36.0938C65.625 26.127 57.5449 18.0469 47.5781 18.0469ZM47.5781 26.25C53.0168 26.25 57.4219 30.6551 57.4219 36.0938C57.4219 41.5324 53.0168 45.9375 47.5781 45.9375C42.1395 45.9375 37.7344 41.5324 37.7344 36.0938C37.7344 30.6551 42.1395 26.25 47.5781 26.25Z" fill="#15559F"/>
</svg>
