<svg width="96" height="96" viewBox="0 0 96 96" fill="none" xmlns="http://www.w3.org/2000/svg">
<path fill-rule="evenodd" clip-rule="evenodd" d="M41.0156 0C63.6645 0 82.0312 18.3668 82.0312 41.0156C82.0312 50.5723 78.7664 59.3578 73.2867 66.3305L94.6723 87.716C95.3121 88.3559 95.3121 89.3977 94.6723 90.0375L90.0375 94.6723C89.3977 95.3121 88.3559 95.3121 87.716 94.6723L66.3305 73.2867C59.116 78.966 50.1973 82.0468 41.0156 82.0312C18.3668 82.0312 0 63.6645 0 41.0156C0 18.3668 18.3668 0 41.0156 0ZM41.0156 8.20312C59.1363 8.20312 73.8281 22.8949 73.8281 41.0156C73.8281 59.1363 59.1363 73.8281 41.0156 73.8281C22.8949 73.8281 8.20312 59.1363 8.20312 41.0156C8.20312 22.8949 22.8949 8.20312 41.0156 8.20312ZM41.0156 68.0859C26.0695 68.0859 13.9453 55.9617 13.9453 41.0156C13.9453 38.7598 15.791 36.9141 18.0469 36.9141C20.3109 36.9141 22.1484 38.7598 22.1484 41.0156C22.1484 51.4418 30.5977 59.8828 41.0156 59.8828C43.2797 59.8828 45.1172 61.7285 45.1172 63.9844C45.1172 66.2402 43.2797 68.0859 41.0156 68.0859Z" fill="#15559F"/>
</svg>
