<svg width="96" height="96" viewBox="0 0 96 96" fill="none" xmlns="http://www.w3.org/2000/svg">
<path fill-rule="evenodd" clip-rule="evenodd" d="M47.5781 27.8906C53.468 27.8906 58.2422 32.6648 58.2422 38.5547C58.2422 44.4445 53.468 49.2188 47.5781 49.2188C41.6883 49.2188 36.9141 44.4445 36.9141 38.5547C36.9141 32.6648 41.6883 27.8906 47.5781 27.8906ZM47.5781 19.6875C57.9961 19.6875 66.4453 28.1367 66.4453 38.5547C66.4453 48.9727 57.9961 57.4219 47.5781 57.4219C37.1602 57.4219 28.7109 48.9727 28.7109 38.5547C28.7109 28.1367 37.1602 19.6875 47.5781 19.6875ZM21.0246 76.65C23.1082 67.5445 31.2949 60.7031 41.0156 60.7031H54.1406C63.8613 60.7031 72.048 67.5445 74.1316 76.65C82.0066 69.4559 86.9531 59.0953 86.9531 47.5781C86.9531 25.8316 69.3246 8.20312 47.5781 8.20312C25.8316 8.20312 8.20312 25.8316 8.20312 47.5781C8.20312 59.0953 13.1496 69.4559 21.0246 76.65V76.65ZM66.4453 82.1461V81.2109C66.4453 74.4516 60.9 68.9062 54.1406 68.9062H41.0156C34.2563 68.9062 28.7109 74.4516 28.7109 81.2109V82.1461C34.4966 85.3073 40.9852 86.9605 47.5781 86.9531C54.4113 86.9531 60.8426 85.2059 66.4453 82.1461ZM47.5781 0C73.8527 0 95.1562 21.3035 95.1562 47.5781C95.1562 73.8527 73.8527 95.1562 47.5781 95.1562C21.3035 95.1562 0 73.8527 0 47.5781C0 21.3035 21.3035 0 47.5781 0Z" fill="#15559F"/>
</svg>
