<svg width="80" height="80" viewBox="0 0 80 80" fill="none" xmlns="http://www.w3.org/2000/svg">
<rect x="1" y="1" width="78" height="78" rx="39" stroke="#15559F" stroke-width="2"/>
<path fill-rule="evenodd" clip-rule="evenodd" d="M35.2405 44.8871C36.2894 45.926 38.0861 47.5474 39.9457 48.7286L38.2847 49.397C37.1696 47.9444 36.1505 46.4455 35.2405 44.8871ZM50.9343 33.8025C48.5089 33.9514 46.3218 35.3411 44.5483 36.9128C44.0023 37.3926 43.9527 38.233 44.4358 38.779C44.6681 39.0415 44.995 39.2011 45.3449 39.2228C45.6948 39.2445 46.039 39.1265 46.3019 38.8948C47.5924 37.7532 49.3163 36.5521 51.0964 36.4429C51.4464 36.4215 51.7736 36.2621 52.0062 35.9997C52.2388 35.7373 52.3579 35.3933 52.3372 35.0433C52.2909 34.3154 51.6622 33.7595 50.9343 33.8025V33.8025ZM53.2174 40.9727C50.0045 39.0668 46.4211 40.0065 43.1784 41.3896C42.3314 40.3639 41.5174 39.5069 41.0078 38.9974L40.9119 38.9014C41.074 38.8518 41.2295 38.769 41.3652 38.6532C43.635 36.7474 44.7038 33.1076 44.0387 30.2587C43.87 29.5474 43.1586 29.104 42.4472 29.2727C41.7391 29.4382 41.2957 30.1496 41.4611 30.861C41.8979 32.7337 41.1666 35.3643 39.6644 36.6282C39.4361 36.8201 39.2872 37.0716 39.2277 37.3429C38.8472 37.0154 38.4303 36.6712 37.9968 36.3304C38.8439 33.7496 38.8472 30.2753 37.4376 28.5117C36.981 27.9426 36.1472 27.8499 35.578 28.3032C35.0089 28.7599 34.9163 29.5937 35.3696 30.1628C36.0016 30.9536 35.9553 33.2565 35.8163 34.2029C35.7898 34.3849 35.7567 34.5701 35.717 34.7554C33.6887 33.561 31.5876 32.929 30.2542 34.1797L30.2508 34.183L30.2178 34.2128L30.2078 34.2194L30.1913 34.2393C30.1483 34.279 30.1086 34.322 30.0755 34.3683L30.0589 34.3849L30.049 34.3981C29.7744 34.7422 29.6089 35.1393 29.513 35.5661L20.9332 56.9179C20.8604 57.0966 20.8207 57.2819 20.8141 57.4606V57.5069L20.8108 57.5235V57.5466L20.8141 57.5632V57.6095C20.8207 57.7915 20.8604 57.9735 20.9332 58.1521C21.006 58.3407 21.1152 58.5095 21.2475 58.6518L21.2641 58.6716L21.274 58.6815L21.2939 58.7014L21.3005 58.7113L21.3203 58.7279L21.3303 58.7378L21.3501 58.7576C21.4977 58.8899 21.6666 58.9962 21.8497 59.072C22.0284 59.1415 22.2104 59.1812 22.3924 59.1878H22.4387L22.4553 59.1911H22.4784L22.495 59.1878H22.5413C22.72 59.1812 22.9053 59.1448 23.0839 59.072L44.4358 50.4889C44.8593 50.3929 45.2564 50.2275 45.6005 49.9562L45.6038 49.9529L45.617 49.9429L45.6203 49.9396C45.67 49.8999 45.7163 49.8602 45.7626 49.8139L45.7791 49.794L45.7924 49.7841L45.8189 49.751L45.8222 49.7477C47.2218 48.2521 46.2655 45.8036 44.7964 43.5701C47.149 42.6238 49.7762 42.0084 51.8674 43.2492C52.4961 43.6198 53.31 43.4113 53.6806 42.786C54.0512 42.1573 53.8427 41.3433 53.2174 40.9727V40.9727ZM40.1806 43.0043C39.949 43.3782 39.906 43.858 40.1078 44.2815C40.2489 44.5728 40.4916 44.8025 40.7902 44.9274C41.0887 45.0523 41.4227 45.0639 41.7291 44.9599C42.3975 45.8797 42.9501 46.783 43.1321 47.4415C41.2361 46.7797 38.0001 43.901 37.0505 42.9514C36.1207 42.0216 33.2056 38.7591 32.5538 36.8731L32.5571 36.8665C33.113 37.022 33.8475 37.4422 34.6185 37.9716C34.6937 38.2588 34.8625 38.5126 35.0983 38.6929C35.3497 38.8849 35.6508 38.9709 35.9453 38.9576C37.1299 39.894 38.2086 40.8768 38.6652 41.3367C38.9828 41.651 39.5519 42.2665 40.1806 43.0043V43.0043ZM29.0431 53.1095C28.3814 52.054 27.8189 50.9521 27.3622 49.7874L28.2291 47.6334C28.9339 49.2977 29.8041 50.876 30.82 52.3948L29.0431 53.1095ZM26.0089 53.1558C26.1843 53.4768 26.363 53.7944 26.5516 54.1121L25.4464 54.5554L26.0089 53.1558ZM33.3347 51.3856C31.7332 49.0826 30.5056 46.644 29.7148 43.9374L30.6578 41.5882C31.9615 44.7415 33.6854 47.6599 35.7402 50.4194L33.3347 51.3856ZM51.7317 27.6514C51.4213 27.3415 51.0007 27.1674 50.5621 27.1674C50.1234 27.1674 49.7028 27.3415 49.3924 27.6514C49.0825 27.9618 48.9084 28.3825 48.9084 28.8211C48.9084 29.2597 49.0825 29.6804 49.3924 29.9907C49.7028 30.3006 50.1234 30.4747 50.5621 30.4747C51.0007 30.4747 51.4213 30.3006 51.7317 29.9907C52.0416 29.6804 52.2157 29.2597 52.2157 28.8211C52.2157 28.3825 52.0416 27.9618 51.7317 27.6514V27.6514ZM55.3019 44.9433C55.1176 44.759 54.8988 44.6129 54.6579 44.5134C54.4171 44.4138 54.1589 44.3627 53.8983 44.363C53.6377 44.3633 53.3797 44.415 53.1391 44.5151C52.8984 44.6153 52.6799 44.7619 52.4961 44.9466C52.3112 45.1305 52.1645 45.3491 52.0645 45.5899C51.9644 45.8307 51.9128 46.0888 51.9128 46.3496C51.9128 46.6103 51.9644 46.8685 52.0645 47.1092C52.1645 47.35 52.3112 47.5686 52.4961 47.7525C52.8683 48.1243 53.3729 48.3331 53.899 48.3331C54.4251 48.3331 54.9297 48.1243 55.3019 47.7525C55.6738 47.3796 55.8827 46.8745 55.8827 46.3479C55.8827 45.8213 55.6738 45.3162 55.3019 44.9433V44.9433ZM29.824 28.2999C28.8578 27.3304 27.2861 27.3304 26.3167 28.2999C25.3472 29.2661 25.3472 30.8378 26.3167 31.8073C26.5468 32.0378 26.8202 32.2207 27.1211 32.3454C27.422 32.4702 27.7446 32.5344 28.0703 32.5344C28.3961 32.5344 28.7186 32.4702 29.0195 32.3454C29.3205 32.2207 29.5938 32.0378 29.824 31.8073C30.7935 30.8378 30.7935 29.2661 29.824 28.2999ZM48.9854 53.2385C48.37 52.9672 47.9166 52.5735 47.6652 51.9415C47.4269 51.3558 46.8777 50.9951 46.2424 51.0117C45.6104 51.0282 45.081 51.4187 44.8758 52.0209C44.6806 52.5999 44.3961 53.0003 43.7872 53.169C43.1387 53.3444 42.7053 53.9102 42.6953 54.5819C42.6854 55.2536 43.1056 55.826 43.7475 56.0212C44.3564 56.2065 44.674 56.6201 44.8858 57.2058C45.1075 57.8179 45.6666 58.2051 46.3185 58.1885C46.9703 58.1753 47.513 57.7617 47.7049 57.1429C47.8935 56.5308 48.2972 56.2099 48.8861 55.9981C49.4718 55.7896 49.849 55.2735 49.8722 54.6547C49.8953 54.0326 49.5545 53.49 48.9854 53.2385V53.2385ZM47.9762 54.5852C47.2053 54.936 46.6196 55.4753 46.2755 56.2462C45.9314 55.5117 45.4086 54.9459 44.6707 54.6051C45.4383 54.2775 45.9611 53.6918 46.2986 52.9275C46.6791 53.6554 47.2516 54.1981 47.9762 54.5852V54.5852ZM57.1714 39.2918C56.8505 38.9676 56.3277 38.9676 56.0034 39.2918C55.6791 39.6161 55.6791 40.1389 56.0034 40.4632C56.3277 40.7841 56.8505 40.7841 57.1747 40.4632C57.4957 40.1389 57.4957 39.6161 57.1714 39.2918V39.2918ZM47.6486 31.5624C47.3277 31.2382 46.8016 31.2382 46.4806 31.5624C46.4037 31.6391 46.3427 31.7302 46.301 31.8305C46.2592 31.9308 46.2377 32.0383 46.2375 32.1469C46.2374 32.2555 46.2586 32.3631 46.3001 32.4635C46.3415 32.5639 46.4023 32.6552 46.479 32.7321C46.5557 32.809 46.6467 32.8701 46.747 32.9118C46.8473 32.9535 46.9548 32.975 47.0635 32.9752C47.1721 32.9753 47.2797 32.9541 47.3801 32.9127C47.4805 32.8712 47.5717 32.8104 47.6486 32.7337C47.9729 32.4095 47.9729 31.8867 47.6486 31.5624ZM33.0203 31.2018C32.6961 30.8775 32.1733 30.8775 31.849 31.2018C31.5247 31.526 31.5247 32.0488 31.849 32.3731C32.1733 32.694 32.6961 32.694 33.0203 32.3731C33.3446 32.0488 33.3446 31.526 33.0203 31.2018ZM49.2799 47.8319C48.9589 47.5076 48.4328 47.5076 48.1119 47.8319C47.7876 48.1529 47.7876 48.679 48.1119 48.9999C48.4361 49.3242 48.9589 49.3242 49.2799 48.9999C49.6041 48.679 49.6041 48.1529 49.2799 47.8319ZM53.2538 23.3962C53.1769 23.3196 53.0856 23.2588 52.9852 23.2173C52.8848 23.1759 52.7772 23.1547 52.6686 23.1548C52.56 23.155 52.4525 23.1765 52.3522 23.2182C52.2519 23.2599 52.1608 23.321 52.0841 23.3979C52.0074 23.4748 51.9466 23.5661 51.9052 23.6665C51.8638 23.7669 51.8425 23.8745 51.8427 23.9831C51.8428 24.0917 51.8644 24.1992 51.9061 24.2995C51.9478 24.3998 52.0089 24.4909 52.0858 24.5676C52.4067 24.8918 52.9328 24.8918 53.2538 24.5676C53.578 24.2433 53.578 23.7205 53.2538 23.3962ZM28.656 29.4679C28.3317 29.147 27.8089 29.147 27.4847 29.4679C27.1637 29.7922 27.1637 30.315 27.4847 30.636C27.8089 30.9602 28.3317 30.9602 28.656 30.6393C28.9769 30.315 28.9769 29.7922 28.656 29.4679ZM37.7983 23.0389C37.1861 22.7676 36.7328 22.3738 36.478 21.7418C36.2398 21.1529 35.6905 20.7922 35.0586 20.8121C34.4233 20.8286 33.8939 21.219 33.692 21.8179C33.4935 22.4003 33.2089 22.8007 32.6001 22.9661C32.2885 23.0495 32.0128 23.2329 31.8155 23.4881C31.6183 23.7434 31.5103 24.0564 31.5082 24.379C31.5016 25.0507 31.9218 25.6264 32.5637 25.8216C33.1725 26.0069 33.4869 26.4172 33.6986 27.0062C33.9203 27.6183 34.4828 28.0021 35.1314 27.9889C35.7832 27.9724 36.3258 27.5621 36.5178 26.94C36.7064 26.3312 37.11 26.0102 37.699 25.7985C38.2847 25.59 38.6652 25.0738 38.685 24.4518C38.7082 23.8297 38.3674 23.2904 37.7983 23.0389V23.0389ZM36.7891 24.3856C36.0214 24.733 35.4358 25.2757 35.0917 26.0433C34.7442 25.3087 34.2247 24.7429 33.4869 24.4054C34.2512 24.0746 34.774 23.4922 35.1115 22.7246C35.492 23.4525 36.0644 23.9985 36.7891 24.3856V24.3856ZM46.4939 22.8867C46.2637 22.6562 45.9903 22.4733 45.6894 22.3486C45.3885 22.2238 45.0659 22.1596 44.7402 22.1596C44.4144 22.1596 44.0919 22.2238 43.791 22.3486C43.49 22.4733 43.2167 22.6562 42.9865 22.8867C42.756 23.1172 42.5731 23.3909 42.4483 23.692C42.3236 23.9932 42.2594 24.316 42.2594 24.642C42.2594 24.968 42.3236 25.2908 42.4483 25.592C42.5731 25.8932 42.756 26.1668 42.9865 26.3974C43.9527 27.3668 45.5244 27.3668 46.4939 26.3974C46.7244 26.1668 46.9073 25.8932 47.032 25.592C47.1568 25.2908 47.221 24.968 47.221 24.642C47.221 24.316 47.1568 23.9932 47.032 23.692C46.9073 23.3909 46.7244 23.1172 46.4939 22.8867V22.8867ZM45.3258 24.058C45.2491 23.9811 45.1581 23.9201 45.0578 23.8783C44.9575 23.8366 44.85 23.8151 44.7413 23.8149C44.6327 23.8148 44.5252 23.836 44.4247 23.8775C44.3243 23.9189 44.2331 23.9797 44.1562 24.0564C44.0793 24.1331 44.0182 24.2241 43.9765 24.3244C43.9348 24.4247 43.9133 24.5322 43.9131 24.6409C43.9129 24.7495 43.9342 24.857 43.9756 24.9575C44.017 25.0579 44.0778 25.1491 44.1545 25.226C44.2312 25.3029 44.3223 25.364 44.4226 25.4057C44.5229 25.4474 44.6304 25.4689 44.739 25.4691C44.8476 25.4693 44.9552 25.448 45.0556 25.4066C45.156 25.3652 45.2473 25.3044 45.3242 25.2277C45.4011 25.151 45.4621 25.0599 45.5039 24.9596C45.5456 24.8593 45.5671 24.7518 45.5673 24.6432C45.5674 24.5346 45.5462 24.427 45.5047 24.3266C45.4633 24.2262 45.4025 24.1349 45.3258 24.058V24.058ZM58.303 31.6451C57.6876 31.3738 57.2343 30.9801 56.9828 30.3481C56.7446 29.7591 56.1953 29.3985 55.5633 29.415C54.928 29.4349 54.3986 29.8253 54.1935 30.4242C53.9983 31.0032 53.7137 31.4036 53.1049 31.5724C52.4564 31.751 52.0229 32.3135 52.013 32.9852C52.0064 33.6569 52.4233 34.2326 53.0685 34.4279C53.6773 34.6132 53.9916 35.0235 54.2034 35.6091C54.4251 36.2212 54.9876 36.6084 55.6361 36.5918C56.288 36.5786 56.8306 36.1683 57.0225 35.5462C57.2111 34.9374 57.6148 34.6165 58.2038 34.4047C58.7894 34.1962 59.17 33.6801 59.1898 33.058C59.213 32.436 58.8722 31.8933 58.303 31.6451V31.6451ZM57.2939 32.9885C56.5262 33.3393 55.9405 33.8786 55.5931 34.6496C55.249 33.915 54.7262 33.3492 53.9883 33.0117C54.756 32.6808 55.2788 32.0985 55.6163 31.3308C55.9968 32.0587 56.5692 32.6047 57.2939 32.9885V32.9885Z" fill="#15559F"/>
</svg>
