<svg width="17" height="17" viewBox="0 0 17 17" fill="none" xmlns="http://www.w3.org/2000/svg">
<path fill-rule="evenodd" clip-rule="evenodd" d="M8.15625 4.78125C9.16594 4.78125 9.98438 5.59969 9.98438 6.60938C9.98438 7.61906 9.16594 8.4375 8.15625 8.4375C7.14656 8.4375 6.32812 7.61906 6.32812 6.60938C6.32812 5.59969 7.14656 4.78125 8.15625 4.78125ZM8.15625 3.375C9.94219 3.375 11.3906 4.82344 11.3906 6.60938C11.3906 8.39531 9.94219 9.84375 8.15625 9.84375C6.37031 9.84375 4.92188 8.39531 4.92188 6.60938C4.92188 4.82344 6.37031 3.375 8.15625 3.375ZM3.60422 13.14C3.96141 11.5791 5.36484 10.4062 7.03125 10.4062H9.28125C10.9477 10.4062 12.3511 11.5791 12.7083 13.14C14.0583 11.9067 14.9062 10.1306 14.9062 8.15625C14.9062 4.42828 11.8842 1.40625 8.15625 1.40625C4.42828 1.40625 1.40625 4.42828 1.40625 8.15625C1.40625 10.1306 2.25422 11.9067 3.60422 13.14ZM11.3906 14.0822V13.9219C11.3906 12.7631 10.44 11.8125 9.28125 11.8125H7.03125C5.8725 11.8125 4.92188 12.7631 4.92188 13.9219V14.0822C5.9137 14.6241 7.02603 14.9075 8.15625 14.9062C9.32766 14.9062 10.4302 14.6067 11.3906 14.0822ZM8.15625 0C12.6605 0 16.3125 3.65203 16.3125 8.15625C16.3125 12.6605 12.6605 16.3125 8.15625 16.3125C3.65203 16.3125 0 12.6605 0 8.15625C0 3.65203 3.65203 0 8.15625 0Z" fill="#969699"/>
</svg>
