<svg width="42" height="42" viewBox="0 0 42 42" fill="none" xmlns="http://www.w3.org/2000/svg">
<path d="M3.73399 28.6873C2.67446 29.1591 1.42225 28.6848 1.05865 27.5835C0.243528 25.1145 -0.107934 22.5096 0.02878 19.9009C0.202223 16.5915 1.15646 13.37 2.81347 10.5C4.47048 7.62997 6.78322 5.19286 9.56259 3.38791C11.7534 1.9652 14.1851 0.967097 16.7308 0.438522C17.8664 0.202742 18.9032 1.05009 19.0244 2.20353C19.1457 3.35698 18.3039 4.37724 17.1745 4.64133C15.287 5.08275 13.4847 5.84879 11.8501 6.91033C9.62657 8.35428 7.77638 10.304 6.45078 12.6C5.12517 14.896 4.36178 17.4732 4.22302 20.1208C4.12102 22.0671 4.35873 24.011 4.92025 25.8664C5.2562 26.9765 4.79352 28.2156 3.73399 28.6873Z" fill="#15559F"/>
<path d="M36.2904 32.1091C37.2287 32.7909 37.4441 34.1124 36.6722 34.978C34.9415 36.9184 32.8613 38.5252 30.5338 39.7111C27.581 41.2157 24.314 42 21 42C17.686 42 14.419 41.2157 11.4662 39.7111C9.13869 38.5252 7.05847 36.9184 5.32783 34.978C4.55585 34.1124 4.77128 32.7909 5.70958 32.1091C6.64787 31.4274 7.95234 31.6463 8.74571 32.4923C10.0718 33.9063 11.6363 35.0841 13.373 35.9689C15.7352 37.1725 18.3488 37.8 21 37.8C23.6512 37.8 26.2648 37.1725 28.627 35.9689C30.3637 35.0841 31.9282 33.9063 33.2543 32.4923C34.0477 31.6463 35.3521 31.4274 36.2904 32.1091Z" fill="#15559F"/>
<path d="M22.6473 2.17192C22.7483 1.01654 23.7702 0.151224 24.9097 0.36715C27.4643 0.851219 29.913 1.80673 32.1283 3.19099C34.9388 4.94716 37.2937 7.34354 39.0005 10.1842C40.7074 13.0249 41.7177 16.2292 41.9488 19.5351C42.1311 22.141 41.8251 24.7517 41.0532 27.2345C40.7089 28.342 39.4651 28.838 38.3975 28.3848C37.3299 27.9317 36.8457 26.7008 37.1622 25.585C37.6913 23.7201 37.895 21.7724 37.7591 19.8281C37.5741 17.1833 36.7659 14.6199 35.4004 12.3474C34.0349 10.0748 32.151 8.15773 29.9027 6.75279C28.2498 5.71995 26.4344 4.98547 24.5394 4.57706C23.4056 4.33272 22.5462 3.3273 22.6473 2.17192Z" fill="#15559F"/>
<path d="M20.9672 28.179C20.0127 28.179 19.1626 28.0149 18.4168 27.6868C17.6753 27.3544 17.0894 26.8984 16.659 26.3189C16.2329 25.7351 16.0134 25.0618 16.0006 24.299H18.7876C18.8046 24.6186 18.909 24.8999 19.1008 25.1428C19.2968 25.3814 19.5567 25.5668 19.8806 25.6989C20.2045 25.831 20.5688 25.897 20.9736 25.897C21.3955 25.897 21.7684 25.8224 22.0922 25.6733C22.4161 25.5241 22.6697 25.3175 22.8529 25.0533C23.0361 24.7891 23.1278 24.4844 23.1278 24.1392C23.1278 23.7898 23.0297 23.4808 22.8337 23.2124C22.642 22.9396 22.365 22.7266 22.0028 22.5732C21.6448 22.4197 21.2187 22.343 20.7243 22.343H19.5035V20.3104H20.7243C21.142 20.3104 21.5106 20.2379 21.8302 20.093C22.154 19.9482 22.4055 19.7479 22.5844 19.4922C22.7634 19.2322 22.8529 18.9297 22.8529 18.5845C22.8529 18.2564 22.7741 17.9688 22.6164 17.7216C22.463 17.4702 22.2457 17.2741 21.9644 17.1335C21.6874 16.9929 21.3635 16.9226 20.9928 16.9226C20.6178 16.9226 20.2748 16.9908 19.9637 17.1271C19.6526 17.2592 19.4033 17.4489 19.2158 17.696C19.0283 17.9432 18.9282 18.233 18.9154 18.5653H16.2627C16.2755 17.8111 16.4907 17.1463 16.9083 16.571C17.3259 15.9957 17.8884 15.5462 18.5958 15.2223C19.3074 14.8942 20.1107 14.7301 21.0056 14.7301C21.909 14.7301 22.6995 14.8942 23.377 15.2223C24.0546 15.5504 24.5809 15.9936 24.9559 16.5518C25.3351 17.1058 25.5226 17.728 25.5184 18.4183C25.5226 19.1513 25.2947 19.7628 24.8344 20.2528C24.3785 20.7429 23.784 21.054 23.051 21.1861V21.2884C24.0141 21.4119 24.7471 21.7464 25.2499 22.2919C25.757 22.8331 26.0084 23.5107 26.0042 24.3246C26.0084 25.0703 25.7932 25.733 25.3586 26.3125C24.9282 26.892 24.3337 27.348 23.5752 27.6804C22.8167 28.0128 21.9474 28.179 20.9672 28.179Z" fill="#212122"/>
</svg>
