<svg width="42" height="42" viewBox="0 0 42 42" fill="none" xmlns="http://www.w3.org/2000/svg">
<path d="M3.73399 28.6873C2.67446 29.1591 1.42225 28.6848 1.05865 27.5835C0.243528 25.1145 -0.107934 22.5096 0.02878 19.9009C0.202223 16.5915 1.15646 13.37 2.81347 10.5C4.47048 7.62997 6.78322 5.19286 9.56259 3.38791C11.7534 1.9652 14.1851 0.967097 16.7308 0.438522C17.8664 0.202742 18.9032 1.05009 19.0244 2.20353C19.1457 3.35698 18.3039 4.37724 17.1745 4.64133C15.287 5.08275 13.4847 5.84879 11.8501 6.91033C9.62657 8.35428 7.77638 10.304 6.45078 12.6C5.12517 14.896 4.36178 17.4732 4.22302 20.1208C4.12102 22.0671 4.35873 24.011 4.92025 25.8664C5.2562 26.9765 4.79352 28.2156 3.73399 28.6873Z" fill="#DBDBDD"/>
<path d="M36.2904 32.1091C37.2287 32.7909 37.4441 34.1124 36.6722 34.978C34.9415 36.9184 32.8613 38.5252 30.5338 39.7111C27.581 41.2157 24.314 42 21 42C17.686 42 14.419 41.2157 11.4662 39.7111C9.13869 38.5252 7.05847 36.9184 5.32783 34.978C4.55585 34.1124 4.77128 32.7909 5.70958 32.1091C6.64787 31.4274 7.95234 31.6463 8.74571 32.4923C10.0718 33.9063 11.6363 35.0841 13.373 35.9689C15.7352 37.1725 18.3488 37.8 21 37.8C23.6512 37.8 26.2648 37.1725 28.627 35.9689C30.3637 35.0841 31.9282 33.9063 33.2543 32.4923C34.0477 31.6463 35.3521 31.4274 36.2904 32.1091Z" fill="#15559F"/>
<path d="M22.6473 2.17192C22.7483 1.01654 23.7702 0.151224 24.9097 0.36715C27.4643 0.851219 29.913 1.80673 32.1283 3.19099C34.9388 4.94716 37.2937 7.34354 39.0005 10.1842C40.7074 13.0249 41.7177 16.2292 41.9488 19.5351C42.1311 22.141 41.8251 24.7517 41.0532 27.2345C40.7089 28.342 39.4651 28.838 38.3975 28.3848C37.3299 27.9317 36.8457 26.7008 37.1622 25.585C37.6913 23.7201 37.895 21.7724 37.7591 19.8281C37.5741 17.1833 36.7659 14.6199 35.4004 12.3474C34.0349 10.0748 32.151 8.15773 29.9027 6.75279C28.2498 5.71995 26.4344 4.98547 24.5394 4.57706C23.4056 4.33272 22.5462 3.3273 22.6473 2.17192Z" fill="#15559F"/>
<path d="M16.3921 28V26.0057L21.0519 21.6911C21.4482 21.3075 21.7806 20.9624 22.0491 20.6555C22.3218 20.3487 22.5285 20.0483 22.6691 19.7543C22.8097 19.456 22.8801 19.1342 22.8801 18.7891C22.8801 18.4055 22.7927 18.0753 22.618 17.7983C22.4433 17.517 22.2046 17.3018 21.9021 17.1527C21.5995 16.9993 21.2565 16.9226 20.873 16.9226C20.4724 16.9226 20.123 17.0036 19.8247 17.1655C19.5264 17.3274 19.2963 17.5597 19.1343 17.8622C18.9724 18.1648 18.8914 18.5249 18.8914 18.9425H16.2643C16.2643 18.0859 16.4582 17.3423 16.846 16.7116C17.2338 16.081 17.7771 15.593 18.4759 15.2479C19.1748 14.9027 19.9802 14.7301 20.8921 14.7301C21.8296 14.7301 22.6457 14.8963 23.3403 15.2287C24.0392 15.5568 24.5825 16.0128 24.9703 16.5966C25.358 17.1804 25.5519 17.8494 25.5519 18.6037C25.5519 19.098 25.4539 19.5859 25.2579 20.0675C25.0661 20.549 24.7231 21.0838 24.2288 21.6719C23.7345 22.2557 23.0377 22.9567 22.1386 23.7749L20.2274 25.6477V25.7372H25.7245V28H16.3921Z" fill="#212122"/>
</svg>
