<svg width="42" height="42" viewBox="0 0 42 42" fill="none" xmlns="http://www.w3.org/2000/svg">
<path d="M6.52176 33.1487C5.6333 33.8942 4.29883 33.7835 3.64574 32.825C1.3074 29.3934 0.0297208 25.3304 0.000511751 21.1466C-0.0286973 16.9628 1.19213 12.8824 3.48233 9.41844C4.12197 8.45097 5.45477 8.32162 6.35355 9.05464C7.25233 9.78767 7.37389 11.1048 6.75864 12.0879C5.07311 14.7814 4.17803 17.9114 4.20041 21.1173C4.22279 24.3232 5.16149 27.4404 6.88445 30.11C7.51337 31.0845 7.41022 32.4032 6.52176 33.1487Z" fill="#DBDBDD"/>
<path d="M33.1487 35.4782C33.8942 36.3667 33.7835 37.7012 32.825 38.3543C29.3934 40.6926 25.3304 41.9703 21.1466 41.9995C16.9628 42.0287 12.8824 40.8079 9.41844 38.5177C8.45097 37.878 8.32162 36.5452 9.05464 35.6465C9.78767 34.7477 11.1048 34.6261 12.0879 35.2414C14.7814 36.9269 17.9114 37.822 21.1173 37.7996C24.3232 37.7772 27.4404 36.8385 30.11 35.1155C31.0845 34.4866 32.4032 34.5898 33.1487 35.4782Z" fill="#DBDBDD"/>
<path d="M35.4782 8.85132C36.3667 8.10581 37.7012 8.21655 38.3543 9.17499C40.6926 12.6066 41.9703 16.6696 41.9995 20.8534C42.0287 25.0372 40.8079 29.1176 38.5177 32.5816C37.878 33.549 36.5452 33.6784 35.6464 32.9454C34.7477 32.2123 34.6261 30.8952 35.2414 29.9121C36.9269 27.2186 37.822 24.0886 37.7996 20.8827C37.7772 17.6768 36.8385 14.5596 35.1156 11.89C34.4866 10.9155 34.5898 9.59682 35.4782 8.85132Z" fill="#DBDBDD"/>
<path d="M8.85132 6.52176C8.10581 5.6333 8.21655 4.29883 9.17499 3.64574C12.6066 1.3074 16.6696 0.0297211 20.8534 0.000511762C25.0372 -0.0286976 29.1176 1.19213 32.5816 3.48232C33.549 4.12197 33.6784 5.45477 32.9454 6.35355C32.2123 7.25232 30.8952 7.37389 29.912 6.75863C27.2186 5.07311 24.0886 4.17803 20.8827 4.20041C17.6768 4.22279 14.5596 5.16149 11.89 6.88445C10.9155 7.51337 9.59682 7.41021 8.85132 6.52176Z" fill="#15559F"/>
<path d="M22.8531 14.9091V28H20.0853V17.5362H20.0086L17.0107 19.4155V16.9609L20.2515 14.9091H22.8531Z" fill="#212122"/>
</svg>
