<svg width="42" height="42" viewBox="0 0 42 42" fill="none" xmlns="http://www.w3.org/2000/svg">
<path d="M6.52176 33.1487C5.6333 33.8942 4.29883 33.7835 3.64574 32.825C1.3074 29.3934 0.0297208 25.3304 0.000511751 21.1466C-0.0286973 16.9628 1.19213 12.8824 3.48233 9.41844C4.12197 8.45097 5.45477 8.32162 6.35355 9.05464C7.25233 9.78767 7.37389 11.1048 6.75864 12.0879C5.07311 14.7814 4.17803 17.9114 4.20041 21.1173C4.22279 24.3232 5.16149 27.4404 6.88445 30.11C7.51337 31.0845 7.41022 32.4032 6.52176 33.1487Z" fill="#DBDBDD"/>
<path d="M33.1487 35.4782C33.8942 36.3667 33.7835 37.7012 32.825 38.3543C29.3934 40.6926 25.3304 41.9703 21.1466 41.9995C16.9628 42.0287 12.8824 40.8079 9.41844 38.5177C8.45097 37.878 8.32162 36.5452 9.05464 35.6465C9.78767 34.7477 11.1048 34.6261 12.0879 35.2414C14.7814 36.9269 17.9114 37.822 21.1173 37.7996C24.3232 37.7772 27.4404 36.8385 30.11 35.1155C31.0845 34.4866 32.4032 34.5898 33.1487 35.4782Z" fill="#15559F"/>
<path d="M35.4782 8.85132C36.3667 8.10581 37.7012 8.21655 38.3543 9.17499C40.6926 12.6066 41.9703 16.6696 41.9995 20.8534C42.0287 25.0372 40.8079 29.1176 38.5177 32.5816C37.878 33.549 36.5452 33.6784 35.6464 32.9454C34.7477 32.2123 34.6261 30.8952 35.2414 29.9121C36.9269 27.2186 37.822 24.0886 37.7996 20.8827C37.7772 17.6768 36.8385 14.5596 35.1156 11.89C34.4866 10.9155 34.5898 9.59682 35.4782 8.85132Z" fill="#15559F"/>
<path d="M8.85132 6.52176C8.10581 5.6333 8.21655 4.29883 9.17499 3.64574C12.6066 1.3074 16.6696 0.0297211 20.8534 0.000511762C25.0372 -0.0286976 29.1176 1.19213 32.5816 3.48232C33.549 4.12197 33.6784 5.45477 32.9454 6.35355C32.2123 7.25232 30.8952 7.37389 29.912 6.75863C27.2186 5.07311 24.0886 4.17803 20.8827 4.20041C17.6768 4.22279 14.5596 5.16149 11.89 6.88445C10.9155 7.51337 9.59682 7.41021 8.85132 6.52176Z" fill="#15559F"/>
<path d="M20.9672 28.179C20.0127 28.179 19.1626 28.0149 18.4168 27.6868C17.6753 27.3544 17.0894 26.8984 16.659 26.3189C16.2329 25.7351 16.0134 25.0618 16.0006 24.299H18.7876C18.8046 24.6186 18.909 24.8999 19.1008 25.1428C19.2968 25.3814 19.5567 25.5668 19.8806 25.6989C20.2045 25.831 20.5688 25.897 20.9736 25.897C21.3955 25.897 21.7684 25.8224 22.0922 25.6733C22.4161 25.5241 22.6697 25.3175 22.8529 25.0533C23.0361 24.7891 23.1278 24.4844 23.1278 24.1392C23.1278 23.7898 23.0297 23.4808 22.8337 23.2124C22.642 22.9396 22.365 22.7266 22.0028 22.5732C21.6448 22.4197 21.2187 22.343 20.7243 22.343H19.5035V20.3104H20.7243C21.142 20.3104 21.5106 20.2379 21.8302 20.093C22.154 19.9482 22.4055 19.7479 22.5844 19.4922C22.7634 19.2322 22.8529 18.9297 22.8529 18.5845C22.8529 18.2564 22.7741 17.9688 22.6164 17.7216C22.463 17.4702 22.2457 17.2741 21.9644 17.1335C21.6874 16.9929 21.3635 16.9226 20.9928 16.9226C20.6178 16.9226 20.2748 16.9908 19.9637 17.1271C19.6526 17.2592 19.4033 17.4489 19.2158 17.696C19.0283 17.9432 18.9282 18.233 18.9154 18.5653H16.2627C16.2755 17.8111 16.4907 17.1463 16.9083 16.571C17.3259 15.9957 17.8884 15.5462 18.5958 15.2223C19.3074 14.8942 20.1107 14.7301 21.0056 14.7301C21.909 14.7301 22.6995 14.8942 23.377 15.2223C24.0546 15.5504 24.5809 15.9936 24.9559 16.5518C25.3351 17.1058 25.5226 17.728 25.5184 18.4183C25.5226 19.1513 25.2947 19.7628 24.8344 20.2528C24.3785 20.7429 23.784 21.054 23.051 21.1861V21.2884C24.0141 21.4119 24.7471 21.7464 25.2499 22.2919C25.757 22.8331 26.0084 23.5107 26.0042 24.3246C26.0084 25.0703 25.7932 25.733 25.3586 26.3125C24.9282 26.892 24.3337 27.348 23.5752 27.6804C22.8167 28.0128 21.9474 28.179 20.9672 28.179Z" fill="#212122"/>
</svg>
